<?xml version="1.0" encoding="UTF-8" standalone="no"?>
<!-- Created with Inkscape (http://www.inkscape.org/) -->

<svg
   version="1.1"
   id="svg1"
   width="222.78667"
   height="155.21333"
   viewBox="0 0 222.78667 155.21333"
   sodipodi:docname="SL_4C_p.eps"
   xmlns:inkscape="http://www.inkscape.org/namespaces/inkscape"
   xmlns:sodipodi="http://sodipodi.sourceforge.net/DTD/sodipodi-0.dtd"
   xmlns="http://www.w3.org/2000/svg"
   xmlns:svg="http://www.w3.org/2000/svg">
  <defs
     id="defs1" />
  <sodipodi:namedview
     id="namedview1"
     pagecolor="#ffffff"
     bordercolor="#000000"
     borderopacity="0.25"
     inkscape:showpageshadow="2"
     inkscape:pageopacity="0.0"
     inkscape:pagecheckerboard="0"
     inkscape:deskcolor="#d1d1d1">
    <inkscape:page
       x="0"
       y="0"
       inkscape:label="1"
       id="page1"
       width="222.78667"
       height="155.21333"
       margin="0"
       bleed="0" />
  </sodipodi:namedview>
  <g
     id="g1"
     inkscape:groupmode="layer"
     inkscape:label="1">
    <g
       id="group-R5">
      <path
         id="path2"
         d="m 1137.07,823.656 v 0 C 968.176,821.563 755.992,778.602 662.668,687.352 615.434,641.156 599.066,585.586 614.02,522.172 630.59,451.84 688.148,412.75 736.492,399.625 c 17.356,-4.836 30.219,-4.582 33.586,-4.426 -2.515,2.356 -11.015,10.364 -11.015,10.364 -0.004,0 -10.352,13.359 -10.352,13.359 -7.68,11.914 -13.785,25.82 -18.164,41.363 -2.703,9.574 -4.039,19.145 -4.039,28.617 0,27.801 11.519,54.657 33.746,77.696 52.922,54.851 166.086,82.55 336.336,82.332 0.05,0 100.62,-1.844 100.62,-1.844 0.12,-0.012 2.38,0.266 2.38,0.266 0.24,0.25 1.14,2.671 1.14,2.671 3.21,9.047 14,41.973 18.52,85.555 2.56,24.699 2.37,52.449 -0.56,82.488 l -0.98,2.735 -1.55,0.523 c -23.66,1.938 -49.54,2.703 -79.09,2.332 v 0"
         style="fill:#ffffff;fill-opacity:1;fill-rule:nonzero;stroke:none"
         transform="matrix(0.13333333,0,0,-0.13333333,0,155.21333)" />
      <path
         id="path3"
         d="m 799.172,1159.66 c -0.016,0 -0.024,0 -0.024,0 -23.789,-2.14 -50.269,-6.92 -67.472,-12.17 -0.004,0 -1.379,-0.38 -1.379,-0.38 l -1.602,-0.55 v 0 c 0,-0.02 -0.886,-1.83 -0.886,-1.83 -12.676,-44.28 -73.946,-92.48 -103.395,-115.65 l -12.309,-9.86 -10.46,-8.84 c -23.723,-20.013 -46.125,-38.915 -66.887,-61.353 -16.574,-17.925 -39.719,-45.195 -55.848,-73.308 -13.406,-23.36 -22.277,-48.981 -27.133,-78.321 -2.375,-14.347 -3.597,-28.96 -3.597,-42.46 0,-5.45 0.199,-10.715 0.597,-15.711 l 0.469,-4.864 c 1.445,-13.73 3.734,-25.648 6.445,-33.578 0.008,-0.008 0.024,-0.039 0.024,-0.043 0.336,1.254 0.789,2.934 0.789,2.934 l 4.25,15.285 1.238,4.125 5.496,17.848 c 11.864,34.004 29.848,63.933 55,91.566 53.485,58.73 109.543,90.844 163.758,121.898 42.117,24.137 81.899,46.922 119.098,80.922 49.937,45.63 68.211,88.67 79.121,114.38 0,0 3.348,7.81 3.394,7.92 -0.156,-0.49 -2.449,0.1 -2.449,0.1 -21.863,3.86 -58.129,4.68 -86.238,1.94 v 0"
         style="fill:#ffffff;fill-opacity:1;fill-rule:nonzero;stroke:none"
         transform="matrix(0.13333333,0,0,-0.13333333,0,155.21333)" />
      <path
         id="path4"
         d="m 1214.03,850.625 c 0.35,-0.031 0.76,-0.062 0.76,-0.062 -0.44,0.031 -0.65,0.062 -0.76,0.062 z M 900,972.535 v 0 C 795.055,952.188 704.133,917.418 629.75,869.195 537.398,809.313 489.496,748.789 469.578,666.82 c -0.461,-1.89 -0.687,-4.078 -0.687,-6.535 0,-12.508 5.875,-31.867 16.5,-53.797 5.718,-11.777 11.75,-20.914 17.582,-29.746 0,0 0.566,-0.859 1.086,-1.648 0.183,1.414 0.421,2.832 0.421,2.832 1.403,7.668 3.524,19.258 9.204,34.527 11.504,30.965 38.445,103.481 162.296,163.176 69.297,33.398 150.325,55.226 247.711,66.73 114.759,13.551 214.499,16.473 288.459,8.442 0.32,-0.039 0.86,-0.09 1.35,-0.129 -0.05,0.285 -0.09,0.617 -0.09,0.617 -6.82,36.07 -22.64,79.07 -40.3,109.586 -0.11,0.203 -11.91,20.352 -11.91,20.352 l -3.18,5.105 c -0.01,0.012 -1.08,1.637 -1.09,1.641 -0.01,0 -1.06,0.922 -1.06,0.922 0.01,-0.008 -3.74,0.777 -3.74,0.777 -9.82,1.191 -33.52,2.375 -65.07,2.375 -53.21,0.656 -117.849,-6.09 -187.06,-19.512 v 0"
         style="fill:#ffffff;fill-opacity:1;fill-rule:nonzero;stroke:none"
         transform="matrix(0.13333333,0,0,-0.13333333,0,155.21333)" />
      <path
         id="path5"
         d="m 15.3828,214.945 c 0,-18.203 5.9961,-32.879 18.3438,-44.871 12.8007,-12.804 24.5976,-18.433 59.9492,-34.293 46.1132,-20.601 68.2772,-31.98 68.2772,-65.1794 0,-31.9532 -25.637,-55.1524 -60.957,-55.1524 -24.0194,0 -46.8007,6.9102 -62.5155,18.9219 -13.4844,10.7773 -22.2461,26.2305 -26.0938,45.9687 -0.0703,0.3399 -1.3359,4.8008 -1.3359,4.8008 -7.62502,0.0313 -8.18752,-4.6289 -8.18752,-6.0508 0,-12.1093 4.05078,-49.5781 6.67188,-67.9687 C 9.75781,9.53125 10.1914,6.21875 10.6836,5.73047 10.6719,5.75 12.5156,5.53906 12.5156,5.53906 l 3.4258,1.41016 7.3008,2.60937 13.0039,-1.54687 c 13.25,-1.92188 35.4297,-5.15234 60.2812,-5.15234 44.0747,0 63.7927,10.44922 76.0627,19.53902 17.461,12.8516 27.883,34.0313 27.883,56.6914 0,48.3792 -40.36,66.0312 -75.977,81.6092 -0.519,0.231 -1.906,0.852 -1.906,0.852 -51.7502,22.742 -73.1681,32.164 -73.1681,66.804 0,30.848 22.3398,51.571 55.5981,51.571 17.734,0 33.726,-4.473 45.019,-12.598 15.676,-10.449 20.723,-25.594 25.176,-38.965 l 2.387,-6.14 c 3.152,0.058 7.226,0.965 7.226,2.996 l -1.844,20.117 -0.371,3.73 c -1.136,9.446 -0.711,26.731 -0.523,34.102 l 0.058,2.832 -0.183,1.828 c -0.078,-0.215 -3.652,-0.527 -3.652,-0.527 0.691,0.34 -5.368,-1.926 -5.368,-1.926 l -8.797,0.957 -14.757,1.738 c -12.77,1.368 -27.719,2.215 -39.008,2.215 -58.6017,0 -95.0002,-28.863 -95.0002,-75.34 v 0"
         style="fill:#ffffff;fill-opacity:1;fill-rule:nonzero;stroke:none"
         transform="matrix(0.13333333,0,0,-0.13333333,0,155.21333)" />
      <path
         id="path6"
         d="m 454.469,191.09 c -0.879,0 -1.153,-2.961 -1.153,-2.961 0,0 0.161,-2.469 0.164,-2.578 0.051,0.293 3.231,0.078 3.231,0.078 7.23,-0.313 23.863,-1.035 23.863,-16.719 0,-8.719 -6.234,-24.012 -11.25,-36.289 l -0.578,-1.43 c -0.012,-0.019 -38.039,-84.5699 -38.039,-84.5699 -0.477,-1.082 -1.551,-1.7305 -2.723,-1.6797 -1.168,0.0391 -2.187,0.8203 -2.574,1.918 -6.211,17.6523 -38.148,113.3206 -38.148,122.5076 0,13.363 10.051,14.008 23.972,14.906 0,0.02 3.129,0.762 3.141,0.762 -0.012,0 -0.016,0.067 -0.016,0.184 0,0.676 0.161,2.91 0.161,2.91 l -0.262,2.766 c -0.004,-0.051 -1.785,0.195 -1.785,0.195 l -40.215,-0.449 -42.906,0.449 c -2.411,0 -2.504,0 -2.504,-3.41 l 0.226,-1.953 c 9.078,-1.485 12.633,-2.051 17.364,-7.305 4.417,-5.879 10.066,-19.762 18.855,-41.973 0.293,-0.738 0.277,-1.539 -0.07,-2.269 L 320.754,45.6797 c -0.496,-1.0391 -1.543,-1.668 -2.684,-1.6406 -1.136,0.0625 -2.136,0.7617 -2.55,1.8203 l -22.063,56.5386 -6.992,18.102 c -0.027,0.09 -1.621,4.52 -1.621,4.52 -6.621,18.492 -12.875,35.949 -12.875,43.453 0,10.019 6.254,14.882 20.914,16.257 0.039,0 3.14,0.469 3.18,0.481 -0.047,0 -0.067,0.254 -0.067,0.613 0,0.86 0.102,2.305 0.102,2.305 0,0 -0.258,2.199 -0.344,2.949 -1.774,-0.027 -42.824,-0.437 -42.824,-0.437 l -35.301,0.449 -1.906,-0.254 c 0,0 0.007,-0.02 0.007,-0.07 0,-0.352 -0.16,-1.739 -0.16,-1.739 0,-3.367 0,-3.367 3.606,-5.175 5.183,-2.332 9.262,-8.204 16.668,-23.512 16.492,-35.66 42.078,-102.9611 57.777,-148.2384 0.219,-0.5508 2.77,-6.71097 2.82,-6.83207 0.102,0.40235 14.629,2.48047 14.629,2.48047 0,0 1.418,0.25 1.45,0.25 0,0 -0.008,0 -0.008,0.01953 0,0.3086 1.183,3.23047 1.183,3.23047 14.446,32.6094 21.328,47.1406 51.094,104.898 0.524,1.012 1.598,1.622 2.734,1.543 1.137,-0.062 2.125,-0.812 2.504,-1.882 16.899,-47.2777 28.411,-84.309 33.141,-101.6606 0.891,-3.2695 2.109,-7.72652 2.773,-8.43746 0.375,0.25 11.547,1.58984 11.547,1.58984 3.742,0.41797 5.465,1.58985 6.617,4.48832 0.106,0.2226 11.188,25.5 11.188,25.5 0.051,0.1015 3.844,8.2812 3.844,8.2812 13.773,29.7383 29.383,63.4417 39.625,82.6917 13.273,24.957 28.273,51.156 38.832,56.195 2.551,1.477 2.84,1.633 2.84,4.57 l -0.289,1.934 c -0.872,0.129 -11.329,-0.051 -11.34,-0.051 l -19.024,-0.269 -25.98,0.3 -9.328,0.149 h -0.004 v 0"
         style="fill:#ffffff;fill-opacity:1;fill-rule:nonzero;stroke:none"
         transform="matrix(0.13333333,0,0,-0.13333333,0,155.21333)" />
      <path
         id="path7"
         d="m 591.152,194.508 c -0.031,-0.012 -26.632,-12.149 -26.632,-12.149 l -20.461,-9.375 c 0.023,0.008 0.035,0.02 0.035,0.02 0,-0.02 -1.278,-0.703 -1.278,-0.703 -2.949,-1.555 -3.261,-1.723 -3.261,-4.278 0,0 0.152,-2.363 0.152,-2.382 0.035,0.136 4.762,-0.996 4.762,-0.996 24.136,-3.024 24.136,-11.465 24.136,-58.293 0,-26.5903 0,-63.0239 -3.71,-74.6137 -3.43,-10.7695 -9.618,-15.1485 -25.457,-18.0195 -4.797,-1.0274 -4.797,-1.0274 -4.797,-4.33989 l 0.218,-2.19922 c 0.942,0.14844 18.051,0.46875 18.051,0.46875 L 586.742,8.21875 624.02,7.58203 635.004,7.32813 636.695,7.5 c 0,0 0,0 0,0.03125 0,0.30078 0.368,3.18755 0.368,3.18755 l -0.282,2.6718 c 0.016,0 -4.215,0.7383 -4.215,0.7383 -17.316,0.8711 -28.101,2.1719 -30.765,17.0899 -1.524,6.7031 -2.274,30.7421 -2.274,73.3402 l 1.317,64.449 c 0.023,0.539 1.812,27.375 1.812,27.375 -0.144,0.703 -1.609,0.957 -1.609,0.957 -2.859,0 -6.086,-0.93 -9.895,-2.832 z m -23,87.918 c 0,-8.738 10.743,-19.481 19.485,-19.481 10.136,0 21.269,10.899 21.269,20.821 0,8.945 -10.984,19.929 -19.926,19.929 -8.597,0 -20.828,-11.004 -20.828,-21.269 v 0"
         style="fill:#ffffff;fill-opacity:1;fill-rule:nonzero;stroke:none"
         transform="matrix(0.13333333,0,0,-0.13333333,0,155.21333)" />
      <path
         id="path8"
         d="m 666.914,144.34 c 0,-30.418 26.66,-42.789 50.18,-53.7189 28.273,-13.2695 46.793,-23.5703 46.793,-45.0508 0,-15.1289 -9.996,-32.8008 -38.164,-32.8008 -7.801,0 -47.321,2.0703 -58.184,42.7891 l -1.824,5.6016 C 661.66,61.0313 659.766,60.5 659.766,59.4297 l 0.695,-9.7578 1.094,-17.0625 -0.282,-14.4375 -0.168,-7.4531 0.481,-2.94927 c 0.23,0 3.238,0.44922 3.238,0.44922 l 3.25,0.45313 4.614,-0.60157 c 0,0 6.335,-0.96875 6.351,-0.98047 8.5,-1.41015 22.723,-3.78906 40.43,-3.78906 12.801,0 76.679,2.48828 76.679,51.66802 0,31.9101 -29.312,45.4922 -52.855,56.3902 -34.211,15.981 -48.137,24.422 -48.137,43.7 0,5.031 1.621,30.132 33.696,30.132 21.675,0 38.488,-11.711 48.628,-33.863 0.086,-0.199 1.918,-4.117 1.918,-4.117 0.012,0 0.028,0 0.036,0 5.285,0 6.136,0.578 6.257,0.68 0,0 0,0 0,0.007 0,0.09 0.176,1.801 0.176,1.801 l -2.117,26.742 -0.996,10.555 c -0.082,0.586 -0.914,5.344 -0.914,5.344 -0.258,-0.363 -3.27,-0.813 -3.27,-0.813 l -3.242,-0.437 -7.226,0.82 c -7.571,1.024 -20.235,2.75 -31.207,2.75 -66.606,0 -69.981,-41.922 -69.981,-50.32 v 0"
         style="fill:#ffffff;fill-opacity:1;fill-rule:nonzero;stroke:none"
         transform="matrix(0.13333333,0,0,-0.13333333,0,155.21333)" />
      <path
         id="path9"
         d="m 833.148,144.34 c 0,-30.418 26.665,-42.789 50.18,-53.7189 28.274,-13.2695 46.801,-23.5703 46.801,-45.0508 0,-15.1289 -10,-32.8008 -38.164,-32.8008 -7.817,0 -47.324,2.0703 -58.192,42.7891 l -1.824,5.6016 c -4.058,-0.1289 -5.953,-0.6602 -5.953,-1.7305 l 0.692,-9.7578 1.093,-17.0625 -0.269,-14.4375 -0.172,-7.4531 0.48,-2.94927 c 0.231,0 3.239,0.44922 3.239,0.44922 l 3.25,0.45313 4.617,-0.60157 6.367,-0.98047 c 8.496,-1.41015 22.715,-3.78906 40.41,-3.78906 12.805,0 76.68,2.48828 76.68,51.66802 0,31.9101 -29.309,45.4922 -52.852,56.3902 -34.218,15.981 -48.144,24.411 -48.144,43.7 0,5.031 1.621,30.132 33.703,30.132 21.656,0 38.473,-11.711 48.633,-33.863 0.086,-0.199 1.914,-4.117 1.914,-4.117 0.008,0 0.027,0 0.039,0 5.281,0 6.133,0.578 6.258,0.68 0,0 0,0 0,0.007 0,0.09 0.175,1.801 0.175,1.801 l -2.121,26.742 -0.996,10.555 c -0.086,0.586 -0.918,5.344 -0.918,5.344 -0.254,-0.363 -3.261,-0.813 -3.261,-0.813 l -3.25,-0.437 -7.227,0.82 c -7.566,1.024 -20.234,2.75 -31.199,2.75 -66.614,0 -69.989,-41.922 -69.989,-50.32 v 0"
         style="fill:#ffffff;fill-opacity:1;fill-rule:nonzero;stroke:none"
         transform="matrix(0.13333333,0,0,-0.13333333,0,155.21333)" />
      <path
         id="path10"
         d="m 1092.9,285.504 -33.37,-1.027 -52.73,1.789 c 0,0 -1.91,-0.129 -1.95,-0.137 0.05,0 0.08,-0.246 0.08,-0.606 0,-1.066 -0.18,-3.097 -0.18,-3.097 l 0.1,-1.375 c 0.7,-0.567 5.63,-1.211 8.58,-1.594 25.27,-3.965 27.52,-14.941 27.52,-45.293 v -64.797 c 0,-36.898 0,-92.6561 -2.7,-120.4881 -1.67,-14.6094 -3.74,-32.7187 -32.55,-35.1875 -0.07,-0.0195 -4.82,-0.8828 -4.83,-0.8828 0.01,0 0.02,-0.0977 0.02,-0.2695 0,-0.8086 -0.17,-3.16019 -0.17,-3.16019 l 0.32,-2.70703 c 0,0.03906 2.18,-0.24219 2.18,-0.24219 l 5.25,0.24219 c 10.18,0.59765 34.02,2 95.3,2 62.69,0 83.01,-1.28125 92.77,-1.89063 l 7.79,-0.35156 c 1.91,0 2.53,1.23047 5.06,10.12891 9.68,34.9805 12.18,55.25 12.18,61.2031 0,0.9571 0,2.0391 -6.97,2.0391 -0.54,-0.4922 -1.51,-3.9219 -2.37,-6.9219 -4.35,-14.25 -12.22,-32.0078 -26.56,-40.4883 -16.3,-9.789 -47.83,-9.789 -75.64,-9.789 -17.55,0 -28.15,0 -30.96,13.4492 -3.21,13.789 -3.63,62.0078 -3.63,102.4802 0,23.16 0.29,100.137 4.08,118.114 3.19,17.5 14.05,21.535 33,22.824 -0.15,-0.012 5.1,1.015 5.1,1.015 -0.03,-0.019 0.27,3.731 0.27,3.731 0,1.765 -0.28,2.051 -2.05,2.051 l -22.94,-0.762 v 0"
         style="fill:#ffffff;fill-opacity:1;fill-rule:nonzero;stroke:none"
         transform="matrix(0.13333333,0,0,-0.13333333,0,155.21333)" />
      <path
         id="path11"
         d="m 1300.33,194.508 c -0.03,-0.012 -26.7,-12.188 -26.7,-12.188 l -20.38,-9.336 c 0.02,0.008 0.03,0.02 0.03,0.02 0,-0.02 -1.28,-0.703 -1.28,-0.703 -2.95,-1.555 -3.26,-1.723 -3.26,-4.278 0,0 0.15,-2.363 0.15,-2.382 0.04,0.136 4.75,-0.996 4.75,-0.996 24.14,-3.024 24.14,-11.465 24.14,-58.293 0,-26.5903 0,-63.0239 -3.71,-74.6137 -3.43,-10.7695 -9.61,-15.1485 -25.45,-18.0195 -4.8,-1.0274 -4.8,-1.0274 -4.8,-4.33989 l 0.21,-2.19922 c 0.95,0.14844 18.06,0.46875 18.06,0.46875 l 33.83,0.57031 37.29,-0.63672 10.97,-0.2539 1.7,0.17187 c 0,0 0,0.01172 0,0.03125 0,0.30078 0.37,3.18755 0.37,3.18755 l -0.29,2.6718 c 0.01,0 -4.21,0.7383 -4.21,0.7383 -17.31,0.8711 -28.11,2.1719 -30.76,17.0899 -1.53,6.6914 -2.28,30.7421 -2.28,73.3402 l 1.33,64.734 c 0.01,0.254 1.8,27.09 1.8,27.09 -0.16,0.703 -1.62,0.957 -1.62,0.957 -2.85,0 -6.09,-0.93 -9.89,-2.832 z m -22.99,87.918 c 0,-8.738 10.75,-19.481 19.49,-19.481 10.13,0 21.26,10.899 21.26,20.821 0,8.945 -10.99,19.929 -19.93,19.929 -8.61,0 -20.82,-11.004 -20.82,-21.269 v 0"
         style="fill:#ffffff;fill-opacity:1;fill-rule:nonzero;stroke:none"
         transform="matrix(0.13333333,0,0,-0.13333333,0,155.21333)" />
      <path
         id="path12"
         d="m 1421.54,273.078 c -0.01,0 -0.01,0 -0.01,0 -19.58,-25.242 -19.99,-42.574 -20.86,-80.543 -0.04,-1.105 -0.68,-2.101 -1.71,-2.551 l -24.13,-10.722 c -0.34,-0.227 -0.52,-4.539 -0.52,-4.539 l 0.07,-2.239 22.99,0.633 c 0.76,0 1.5,-0.289 2.03,-0.828 0.53,-0.547 0.84,-1.269 0.82,-2.031 l -0.88,-121.6369 c -0.89,-25.1523 -3.96,-31.8906 -25.26,-34.9219 0.07,0.0196 -3.2,-0.7773 -3.2,-0.7773 0,0 0.01,-0.0703 0.01,-0.1914 0,-0.6719 -0.17,-2.91019 -0.17,-2.91019 0,0 0.4,-3.1914 0.4,-3.21875 0.05,0.28907 12.82,0.58985 12.82,0.58985 l 27.73,0.57812 44.75,-0.64062 15.58,-0.25 c 6.08,0 6.08,0 6.08,4.29299 l -0.24,2.8984 c -0.01,-0.082 -3.38,0.4883 -3.38,0.4883 -31.09,0 -41,4.3203 -41.97,31.3516 0,0.0586 -0.9,124.7968 -0.9,124.7968 -0.01,0.754 0.29,1.477 0.83,2.023 0.54,0.536 1.28,0.829 2.04,0.829 h 60.76 c 2.95,0 2.95,0 2.95,8.32 l 0.02,2.473 -0.27,6.113 -63.46,-0.274 c -1.58,0 -2.87,1.278 -2.87,2.86 0,69.238 2.28,102.512 53.37,102.512 23.51,0 35.03,-7.532 41.63,-13.204 -0.02,0.028 3.55,-3.058 3.55,-3.058 2.24,-1.973 4.36,-3.848 5.32,-3.848 3,0.149 21.26,8.352 21.26,16.36 0,10.515 -17.76,25.742 -49.87,25.742 -37.72,0 -68.8,-22.969 -85.31,-44.477 v 0"
         style="fill:#ffffff;fill-opacity:1;fill-rule:nonzero;stroke:none"
         transform="matrix(0.13333333,0,0,-0.13333333,0,155.21333)" />
      <path
         id="path13"
         d="m 1546.99,112.219 c -0.65,0.551 -1,1.371 -0.99,2.211 0.46,34.781 13.55,69.863 41.72,69.863 24.33,0 42.65,-26.953 42.65,-44.414 0,-7.07 -4.95,-10.981 -18.24,-14.399 -32.38,-8.101 -43.84,-10.75 -62.8,-13.91 -0.83,-0.148 -1.7,0.09 -2.34,0.649 z m -33.7,-22.8401 c 0,-20.207 5.39,-86.07812 74.88,-86.07812 31.97,0 60.63,15.01952 75.45,27.91012 3.97,3.0782 4.36,4.1602 4.36,5.8594 -0.02,0.0313 -0.61,3.6602 -0.61,3.6602 0,0 -0.62,1.5508 -0.6,1.4883 -23.47,-17.0391 -47.66,-19.1602 -57.14,-19.1602 -54.04,0 -62.2,54.0898 -63.19,77.3514 0,0.051 0,0.09 0,0.129 0,1.359 0.95,2.551 2.3,2.801 32.11,6.512 74.51,14.82 118.35,21.672 0,0.207 0.04,0.297 0.04,0.566 0,3.242 -1.05,10.82 -3.53,20.742 -9.72,35.657 -40.21,48.34 -63.35,48.34 -42.75,0 -86.96,-39.39 -86.96,-105.2811 v 0"
         style="fill:#ffffff;fill-opacity:1;fill-rule:nonzero;stroke:none"
         transform="matrix(0.13333333,0,0,-0.13333333,0,155.21333)" />
      <path
         id="path14"
         d="m 1222.09,735.285 c 2.68,25.813 2.29,53.949 -0.55,83.059 -0.17,1.847 -0.64,3.312 -1.81,4.484 -0.94,0.938 -1.95,1.231 -3.33,1.348 -23.8,1.953 -49.85,2.715 -79.37,2.344 C 969.395,824.438 755.398,782.027 660.664,689.398 616.23,645.941 594.941,590.617 611.23,521.52 c 18.516,-78.586 83.868,-113.625 124.512,-124.661 20.711,-5.769 36.262,-4.461 36.262,-4.461 0,0 2.957,-0.273 3.262,1.211 0.183,0.926 -2.395,2.879 -2.395,2.879 0,0 -7.461,6.387 -11.699,11.004 -4.336,4.75 -6.563,7.746 -10.078,13.02 -6.153,9.543 -12.727,22.566 -17.793,40.558 -10.86,38.446 1.133,74.649 29.012,103.543 47.453,49.18 151.796,81.692 334.267,81.457 l 100.57,-1.847 c 0,0 3.12,-0.215 4.34,1.007 0.89,0.887 0.85,0.762 1.95,3.836 5.97,16.914 14.74,48.536 18.65,86.219 v 0"
         style="fill:#ed1639;fill-opacity:1;fill-rule:nonzero;stroke:none"
         transform="matrix(0.13333333,0,0,-0.13333333,0,155.21333)" />
      <path
         id="path15"
         d="m 885.898,1160.54 c -21.796,3.85 -58.078,4.79 -87.011,1.98 -23.379,-2.11 -50.41,-6.91 -68.047,-12.29 -1.848,-0.56 -3.211,-0.69 -4.16,-1.63 -0.821,-0.83 -1.289,-1.94 -1.621,-3.07 -14.59,-50.96 -95.071,-107.4 -114.805,-124.13 -28.145,-23.857 -53.731,-44.627 -77.598,-70.427 -20.422,-22.082 -41.699,-48.496 -56.23,-73.828 C 461.191,850.59 453.262,823.91 448.953,797.867 445.293,775.758 444.629,755.113 445.93,739 h -0.012 c 0.02,-0.129 0.312,-3.488 0.488,-4.973 2.422,-23.066 6.321,-33.328 6.699,-34.519 0.645,-1.992 1.27,-4.16 2.872,-4.16 1.523,0 1.953,2.73 2.461,4.511 0.507,1.766 2.89,11.024 5.058,18.282 2.578,8.582 4.004,13.476 6.719,21.914 8.098,23.211 22.89,55.918 54.394,90.515 94.141,103.379 196.641,124.016 282.664,202.64 54.504,49.8 71.477,96.19 82.415,121.43 0.722,1.65 1.574,2.9 0.71,4.11 -0.769,1.09 -2.437,1.43 -4.5,1.79 v 0"
         style="fill:#ed1639;fill-opacity:1;fill-rule:nonzero;stroke:none"
         transform="matrix(0.13333333,0,0,-0.13333333,0,155.21333)" />
      <path
         id="path16"
         d="m 1216.21,851.859 c -6.52,34.512 -22,78.274 -40.63,110.45 -3.51,7.375 -10.89,18.632 -15.13,25.527 -1.8,2.941 -1.45,1.914 -2.5,3.027 -1.5,1.614 -5.78,1.672 -5.78,1.672 -10.71,1.317 -35.57,2.371 -65.11,2.371 h -0.09 v 0 C 1035.11,995.551 970.703,989.164 899.453,975.348 793.938,954.887 702.402,919.711 628.191,871.598 548.281,819.781 489.57,761.215 466.797,667.504 c -3.582,-14.734 5.82,-41.219 16.016,-62.266 6.386,-13.152 13.164,-23.066 19.531,-32.746 0.859,-1.297 1.992,-2.691 2.969,-2.125 0.683,0.399 0.847,1.121 1.171,2.735 1.454,7.089 3.086,20.086 9.883,38.359 12.344,33.223 40.574,103.613 160.86,161.59 80.136,38.625 167.187,57.062 246.796,66.465 126.097,14.894 221.727,15.617 287.817,8.437 1.75,-0.195 3.82,-0.613 4.35,0.324 0.53,0.938 0.31,2.032 0.02,3.582 v 0"
         style="fill:#ed1639;fill-opacity:1;fill-rule:nonzero;stroke:none"
         transform="matrix(0.13333333,0,0,-0.13333333,0,155.21333)" />
      <path
         id="path17"
         d="m 1148.03,794.313 h -35.06 v -40.079 h -40.06 v -35.05 h 40.06 v -40.079 h 35.06 v 40.079 h 40.1 v 35.05 h -40.1 v 40.079 0"
         style="fill:#ffffff;fill-opacity:1;fill-rule:nonzero;stroke:none"
         transform="matrix(0.13333333,0,0,-0.13333333,0,155.21333)" />
      <path
         id="path18"
         d="M 174.285,20.1016 C 160.434,9.82031 139.43,0 96.5273,0 60.332,0 30.3906,6.69922 23.2422,6.69922 c -5.3594,0 -5.8125,-4.02734 -10.7266,-4.02734 -4.46872,0 -4.91794,1.34765 -5.81247,8.04692 C 4.02344,29.5 0,67.0313 0,79.0898 c 0,4.0313 2.6875,8.9297 10.7266,8.9297 3.1289,0 3.5742,-2.6679 4.4687,-7.1406 3.5742,-18.3281 11.6211,-33.5195 25.0235,-44.2383 15.1953,-11.6289 37.0976,-18.332 60.7772,-18.332 33.07,0 58.098,21.0195 58.098,52.293 0,31.2774 -20.559,42.0004 -66.5901,62.5584 -34.8516,15.641 -47.3672,21.449 -60.7773,34.863 -15.6368,15.196 -19.211,32.618 -19.211,46.922 0,45.578 33.9649,78.203 97.8674,78.203 11.621,0 26.808,-0.898 39.324,-2.226 12.066,-1.348 21.898,-2.684 23.238,-2.684 1.785,0 3.129,0.899 4.465,1.785 1.344,0.442 1.793,0.442 4.477,0.442 2.679,0 3.125,-1.789 3.125,-4.465 0,-2.684 -0.895,-25.477 0.449,-36.648 0.891,-8.926 2.23,-21.887 2.23,-24.133 0,-4.461 -5.804,-5.809 -9.832,-5.809 -2.679,0 -3.129,1.348 -5.359,8.055 -4.469,13.398 -9.387,27.695 -24.133,37.527 -11.176,8.051 -26.812,12.074 -43.347,12.074 -29.9419,0 -52.7348,-18.332 -52.7348,-48.711 0,-33.078 21.0039,-42.011 72.8438,-64.804 35.75,-15.641 78.207,-33.973 78.207,-84.4612 0,-27.2617 -13.856,-47.8203 -29.051,-58.9882 v 0"
         style="fill:#231f20;fill-opacity:1;fill-rule:nonzero;stroke:none"
         transform="matrix(0.13333333,0,0,-0.13333333,0,155.21333)" />
      <path
         id="path19"
         d="M 518.828,181.879 C 508.551,176.957 492.461,147.91 481.289,126.922 470.117,105.91 452.242,67.0313 437.938,36.1914 434.813,28.5898 428.109,13.3906 426.77,10.7188 424.98,6.23828 421.855,4.91016 417.832,4.46094 L 406.66,3.12891 C 403.531,2.67188 403.086,3.57813 400.406,13.3906 395.039,33.0586 382.973,71.0508 367.336,114.84 336.941,55.8516 330.242,41.5508 316.387,10.2695 314.602,5.37109 314.602,5.37109 311.477,4.91016 L 295.828,2.67188 c -1.785,0 -2.23,1.34765 -4.91,8.50002 -15.195,43.7969 -41.113,112.1561 -57.652,147.9181 -6.7,13.855 -10.715,20.105 -14.746,21.89 -5.36,2.688 -5.809,2.688 -5.809,8.047 0,3.575 0.898,4.914 4.918,4.914 9.383,0 28.152,-0.441 35.301,-0.441 15.644,0 29.941,0.441 43.8,0.441 1.786,0 2.231,-2.687 2.231,-5.812 0,-5.359 -0.445,-5.809 -5.813,-6.25 -14.296,-1.336 -18.32,-5.809 -18.32,-13.406 0,-7.602 7.598,-28.153 14.305,-46.914 7.144,-18.34 14.297,-37.5473 29.047,-74.6371 8.043,16.539 33.066,68.3671 42.449,88.4691 -8.488,21.461 -14.301,35.757 -18.32,41.129 -4.024,4.46 -6.704,4.91 -15.196,6.25 -2.679,0.449 -3.129,2.234 -3.129,4.91 0,4.48 0.895,6.261 5.368,6.261 12.066,0 34.851,-0.441 42.906,-0.441 9.82,0 35.297,0.441 40.215,0.441 4.465,0 4.91,-1.781 4.91,-5.812 0,-5.359 -0.445,-5.809 -5.805,-6.699 -13.859,-0.887 -21.457,-1.336 -21.457,-12.063 0,-8.047 29.496,-97.4256 37.988,-121.5584 13.407,29.043 29.047,63.0004 37.985,84.4724 4.918,12.059 11.621,28.141 11.621,36.629 0,11.633 -10.727,13.41 -21.004,13.86 -5.813,0 -6.258,0.449 -6.258,5.359 0,4.031 0.445,5.812 4.02,5.812 4.918,0 21.007,-0.441 35.308,-0.441 10.723,0 23.68,0.441 29.492,0.441 3.129,0 4.024,-1.781 4.024,-4.914 0,-4.472 -1.344,-5.359 -4.469,-7.148 v 0"
         style="fill:#231f20;fill-opacity:1;fill-rule:nonzero;stroke:none"
         transform="matrix(0.13333333,0,0,-0.13333333,0,155.21333)" />
      <path
         id="path20"
         d="m 587.637,260.082 c -10.278,0 -22.344,12.063 -22.344,22.344 0,12.07 13.852,24.133 23.687,24.133 10.278,0 22.79,-12.063 22.79,-22.793 0,-11.172 -12.067,-23.684 -24.133,-23.684 z M 635.004,4.46094 c -6.254,0 -26.359,0.91015 -48.262,0.91015 -17.426,0 -42.449,-0.91015 -50.941,-0.91015 -3.129,0 -4.024,0.91015 -4.024,4.91797 0,5.35939 0.895,5.81249 7.149,7.16019 14.75,2.6601 20.113,6.2422 23.242,16.0703 3.574,11.1797 3.574,47.8203 3.574,73.7426 0,46.488 0,52.738 -21.449,55.41 -7.152,1.347 -7.598,1.347 -7.598,6.261 0,4.922 2.231,5.36 6.254,7.594 8.492,3.578 36.196,16.985 46.922,21.449 4.469,2.247 8.051,3.133 11.176,3.133 3.129,0 4.465,-1.347 4.465,-4.023 -0.446,-6.258 -1.336,-19.656 -1.785,-26.809 -0.446,-10.277 -1.34,-30.398 -1.34,-64.808 0,-13.8481 0,-63.0082 2.23,-72.8285 2.238,-12.5313 10.731,-13.8516 28.156,-14.75 6.254,-0.4414 7.149,-1.3516 7.149,-6.2617 0,-5.34771 -1.336,-6.25786 -4.918,-6.25786 v 0"
         style="fill:#231f20;fill-opacity:1;fill-rule:nonzero;stroke:none"
         transform="matrix(0.13333333,0,0,-0.13333333,0,155.21333)" />
      <path
         id="path21"
         d="m 719.469,0.441406 c -18.77,0 -33.965,2.687504 -42.008,4.019534 -4.023,0.44922 -7.598,1.34765 -9.387,1.34765 -1.34,0 -4.469,-0.89843 -6.258,-0.89843 -2.679,0 -3.574,2.23047 -3.574,5.80864 0,4.9101 0.449,12.5195 0.449,21.8906 0,7.1523 -1.789,22.789 -1.789,26.8203 0,3.5703 3.578,4.4687 8.493,4.4687 2.679,0 3.125,-0.8984 4.914,-7.5976 8.937,-33.5195 39.324,-40.6719 55.414,-40.6719 28.597,0 35.3,18.7695 35.3,29.9414 0,19.2188 -15.636,28.6016 -45.132,42.4492 -25.028,11.6211 -51.836,24.5825 -51.836,56.3205 0,20.558 14.3,53.176 72.84,53.176 16.089,0 35.3,-3.575 38.433,-3.575 1.344,0 4.469,0.899 6.254,0.899 3.129,0 3.129,-0.899 4.023,-7.598 0.899,-10.285 3.125,-30.39 3.125,-37.543 0,-4.019 -0.894,-5.359 -8.933,-5.359 -2.238,0 -3.125,0.89 -4.918,5.808 -4.914,10.723 -17.43,32.172 -46.027,32.172 -26.817,0 -30.832,-18.769 -30.832,-27.261 0,-17.43 12.062,-25.02 46.472,-41.11 24.129,-11.16 54.516,-25.4802 54.516,-58.9802 0,-46.48833 -53.621,-54.527394 -79.539,-54.527394 v 0"
         style="fill:#231f20;fill-opacity:1;fill-rule:nonzero;stroke:none"
         transform="matrix(0.13333333,0,0,-0.13333333,0,155.21333)" />
      <path
         id="path22"
         d="m 885.703,0.441406 c -18.769,0 -33.965,2.687504 -42.012,4.019534 -4.019,0.44922 -7.597,1.34765 -9.382,1.34765 -1.34,0 -4.469,-0.89843 -6.258,-0.89843 -2.68,0 -3.574,2.23047 -3.574,5.80864 0,4.9101 0.445,12.5195 0.445,21.8906 0,7.1523 -1.785,22.789 -1.785,26.8203 0,3.5703 3.578,4.4687 8.496,4.4687 2.676,0 3.125,-0.8984 4.91,-7.5976 8.937,-33.5195 39.324,-40.6719 55.422,-40.6719 28.594,0 35.301,18.7695 35.301,29.9414 0,19.2188 -15.645,28.6016 -45.137,42.4492 -25.027,11.6211 -51.84,24.5825 -51.84,56.3205 0,20.558 14.301,53.176 72.848,53.176 16.082,0 35.301,-3.575 38.426,-3.575 1.335,0 4.472,0.899 6.257,0.899 3.125,0 3.125,-0.899 4.028,-7.598 0.886,-10.285 3.125,-30.39 3.125,-37.543 0,-4.019 -0.903,-5.359 -8.938,-5.359 -2.234,0 -3.137,0.89 -4.922,5.808 -4.914,10.723 -17.422,32.172 -46.023,32.172 -26.82,0 -30.844,-18.769 -30.844,-27.261 0,-17.43 12.07,-25.02 46.484,-41.11 24.133,-11.16 54.512,-25.4802 54.512,-58.9802 0,-46.48833 -53.621,-54.527394 -79.539,-54.527394 v 0"
         style="fill:#231f20;fill-opacity:1;fill-rule:nonzero;stroke:none"
         transform="matrix(0.13333333,0,0,-0.13333333,0,155.21333)" />
      <path
         id="path23"
         d="m 1212.36,16.5391 c -2.67,-9.39847 -3.57,-12.96097 -8.03,-12.96097 -9.4,0 -16.99,2.23046 -100.56,2.23046 -77.31,0 -95.19,-2.23046 -100.55,-2.23046 -4.458,0 -5.361,1.33203 -5.361,5.80078 0,6.24999 0.454,6.24999 7.601,7.16019 25.92,2.2226 28.15,16.9726 29.94,32.6015 2.69,27.711 2.69,83.5784 2.69,120.2264 0,25.024 0,64.797 0,64.797 0,29.934 -2.24,38.879 -25.03,42.453 -10.28,1.336 -11.18,1.785 -11.18,5.809 0,6.25 0.9,6.711 4.92,6.711 13.85,0 39.77,-1.797 52.73,-1.797 16.53,0 45.14,1.797 56.31,1.797 3.12,0 4.91,-1.352 4.91,-4.922 0,-6.262 -0.44,-6.711 -8.04,-7.598 -19.66,-1.347 -27.7,-5.812 -30.4,-20.558 -3.57,-16.981 -4.01,-88.477 -4.01,-117.528 0,-40.6716 0.44,-88.4919 3.58,-101.8904 2.23,-10.7187 9.38,-11.1797 28.15,-11.1797 27.7,0 58.53,0 74.18,9.3907 12.07,7.1484 20.12,21.8984 25.03,37.9882 1.79,6.25 2.68,9.8204 5.36,9.8204 8.5,0 9.83,-1.7813 9.83,-4.8985 0,-6.7109 -2.68,-27.2734 -12.07,-61.2226 v 0"
         style="fill:#231f20;fill-opacity:1;fill-rule:nonzero;stroke:none"
         transform="matrix(0.13333333,0,0,-0.13333333,0,155.21333)" />
      <path
         id="path24"
         d="m 1296.83,260.082 c -10.29,0 -22.35,12.063 -22.35,22.344 0,12.07 13.85,24.133 23.68,24.133 10.29,0 22.8,-12.063 22.8,-22.793 0,-11.172 -12.08,-23.684 -24.13,-23.684 z M 1344.18,4.46094 c -6.25,0 -26.35,0.91015 -48.26,0.91015 -17.42,0 -42.45,-0.91015 -50.94,-0.91015 -3.12,0 -4.02,0.91015 -4.02,4.91797 0,5.35939 0.9,5.81249 7.16,7.16019 14.74,2.6601 20.1,6.2422 23.23,16.0703 3.57,11.1797 3.57,47.8203 3.57,73.7426 0,46.488 0,52.738 -21.45,55.41 -7.15,1.347 -7.59,1.347 -7.59,6.261 0,4.922 2.24,5.36 6.26,7.594 8.48,3.578 36.19,16.985 46.91,21.449 4.48,2.247 8.04,3.133 11.17,3.133 3.13,0 4.48,-1.347 4.48,-4.023 -0.45,-6.258 -1.35,-19.656 -1.79,-26.809 -0.45,-10.277 -1.34,-30.398 -1.34,-64.808 0,-13.8481 0,-63.0082 2.23,-72.8285 2.24,-12.5313 10.72,-13.8516 28.16,-14.75 6.25,-0.4414 7.15,-1.3516 7.15,-6.2617 0,-5.34771 -1.35,-6.25786 -4.93,-6.25786 v 0"
         style="fill:#231f20;fill-opacity:1;fill-rule:nonzero;stroke:none"
         transform="matrix(0.13333333,0,0,-0.13333333,0,155.21333)" />
      <path
         id="path25"
         d="m 1535.46,272.594 c -2.7,0 -5.37,3.125 -10.72,7.597 -6.27,5.372 -16.99,12.52 -39.78,12.52 -48.26,0 -50.5,-29.504 -50.5,-99.66 4.46,0 52.74,0 62.55,0 4.48,0 4.03,-1.348 4.03,-11.172 0,-8.934 0,-11.172 -5.82,-11.172 h -60.76 c 0,-41.566 0.45,-97.8672 0.88,-124.6757 0.91,-25.0313 9.4,-28.6094 39.33,-28.6094 5.81,-0.4414 6.26,-1.3321 6.26,-6.25 0,-5.80081 -0.89,-7.15237 -8.93,-7.15237 -6.71,0 -39.33,0.89063 -60.33,0.89063 -15.21,0 -33.96,-0.89063 -41.12,-0.89063 -2.24,0 -2.68,2.67969 -2.68,5.80078 0,5.37109 0.44,5.80859 5.8,6.71879 18.78,2.6601 21.92,7.1406 22.79,32.1797 0.91,29.4804 0.91,89.3592 0.91,121.5392 h -23.24 c -2.67,0.449 -2.67,0.89 -2.67,4.465 0,5.371 0,5.82 2.21,7.156 l 24.13,10.723 c 0.91,38.878 1.36,56.308 21.46,82.226 19.23,25.031 51.83,45.586 87.59,45.586 33.52,0 52.74,-16.094 52.74,-28.601 0,-10.286 -20.56,-19.219 -24.13,-19.219 v 0"
         style="fill:#231f20;fill-opacity:1;fill-rule:nonzero;stroke:none"
         transform="matrix(0.13333333,0,0,-0.13333333,0,155.21333)" />
      <path
         id="path26"
         d="m 1587.72,181.43 c -26.34,0 -38.42,-33.961 -38.87,-67.039 18.78,3.129 30.4,5.82 62.57,13.859 13.84,3.57 16.08,7.141 16.08,11.629 0,16.07 -17.41,41.551 -39.78,41.551 z M 1665.5,29.0391 c -16.99,-14.75 -46.49,-28.597694 -77.33,-28.597694 -64.33,0 -77.75,54.956994 -77.75,88.937494 0,69.7111 47.37,108.1371 89.83,108.1371 21.45,0 55.41,-11.172 66.13,-50.496 2.69,-10.731 4.92,-24.129 2.69,-24.579 -40.23,-6.261 -79.99,-13.851 -119.77,-21.902 1.33,-31.2773 13.41,-74.6171 60.33,-74.6171 14.3,0 36.65,4.0195 57.21,19.6484 1.33,1.3516 2.23,1.7891 2.67,0 0.45,-3.1094 0.9,-5.3594 1.34,-8.4922 0,-3.1172 -1.34,-4.9062 -5.35,-8.039 v 0"
         style="fill:#231f20;fill-opacity:1;fill-rule:nonzero;stroke:none"
         transform="matrix(0.13333333,0,0,-0.13333333,0,155.21333)" />
    </g>
  </g>
</svg>
